<?xml version="1.0" ?><svg xmlns="http://www.w3.org/2000/svg" id="Layer_1" data-name="Layer 1" viewBox="0 0 128 128"><defs><style>.cls-1{fill:#1786c4;}</style></defs><title/><path class="cls-1" d="M72.8,22.96c-2.84.14-5.8.21-8.79.22-3.01-.01-5.97-.08-8.81-.22a13.29558,13.29558,0,0,1-7.74-2.95,18.9803,18.9803,0,0,0,33.08,0A13.29558,13.29558,0,0,1,72.8,22.96Z"/><path class="cls-1" d="M77.6,29.43a5.84573,5.84573,0,0,0-.86-1.45,21.39954,21.39954,0,0,1-11.61,4.17,6.084,6.084,0,0,0,.10327.96,12.49041,12.49041,0,0,1-2.46667.002A6.07978,6.07978,0,0,0,62.87,32.15a21.39954,21.39954,0,0,1-11.61-4.17,5.84573,5.84573,0,0,0-.86,1.45,6.51415,6.51415,0,0,0,11.69116,5.61188,13.931,13.931,0,0,0,1.94055.13373,13.61766,13.61766,0,0,0,1.87952-.12976A6.51413,6.51413,0,0,0,77.6,29.43Z"/><path class="cls-1" d="M55.35,19.96c2.71.14,5.63.21,8.67.22,3.01-.01,5.92-.08,8.63-.22a10.24185,10.24185,0,0,0,6-2.28l6.71-5.45a30.9769,30.9769,0,0,0-2.77-2.35q-.52505-.405-1.08-.78a.576.576,0,0,0-.07-.04c-.06-.03-.11-.08-.16-.11-.99-.42-1.96-.87-2.94-1.32-.47-.22-.94-.42-1.41-.64-1.39-.65-2.77-1.34-4.14-2.04Q68.845,2.90995,65.03.61a1.95969,1.95969,0,0,0-2.06,0Q59.16,2.92,55.21,4.95c-1.37.7-2.75,1.39-4.15,2.04-.46.22-.93.42-1.39.63-.98.45-1.96.91-2.95,1.33a1.42955,1.42955,0,0,0-.15.11.30183.30183,0,0,0-.08.04q-.555.375-1.08.78a30.97768,30.97768,0,0,0-2.77,2.35l6.71,5.45A10.24154,10.24154,0,0,0,55.35,19.96ZM60.5,7.68a7.94889,7.94889,0,0,0,3.5,0,7.94889,7.94889,0,0,0,3.5,0,11.10733,11.10733,0,0,0,0,6.14,2.466,2.466,0,0,1-1.78,2.37L64,16.68l-1.72-.49a2.466,2.466,0,0,1-1.78-2.37A11.10677,11.10677,0,0,0,60.5,7.68Z"/><path class="cls-1" d="M26.51,34.68a11.23036,11.23036,0,0,0,8.47,10.87A31.12083,31.12083,0,0,0,47.33,60.81a2.10454,2.10454,0,0,0-.44,3.72,30.99736,30.99736,0,0,0,34.22,0A2.10456,2.10456,0,0,0,80.67,60.81,31.12083,31.12083,0,0,0,93.02,45.55,11.19505,11.19505,0,0,0,98,26.57V14.13A3.98268,3.98268,0,0,0,99.88,9.7a3.94164,3.94164,0,0,0-2.9-2.9A3.99347,3.99347,0,0,0,94,14.13V24.1c-.32-.11-.64-.2-.96-.29a30.69711,30.69711,0,0,0-5.78-9.61l-3.17,5.61a25,25,0,1,1-40.18,0L40.74,14.2a30.69694,30.69694,0,0,0-5.78,9.61c-.32.09-.64.18-.96.29V14.13A3.98268,3.98268,0,0,0,35.88,9.7a3.94164,3.94164,0,0,0-2.9-2.9A3.99347,3.99347,0,0,0,30,14.13V26.57A11.14789,11.14789,0,0,0,26.51,34.68Z"/><path class="cls-1" d="M64,53.68a10.01732,10.01732,0,0,0,9.8-8H54.2A10.01727,10.01727,0,0,0,64,53.68Z"/><path class="cls-1" d="M125.37,66.34c-3.21-3.44-7.79-6-14.01-7.8a11.412,11.412,0,0,0-2.6-.44,29.80245,29.80245,0,0,0-14.79,3.03,3.02044,3.02044,0,0,0-.38.24L89.15,64.9a44.55236,44.55236,0,0,1-50.3,0l-4.44-3.53a3.02044,3.02044,0,0,0-.38-.24A29.80268,29.80268,0,0,0,19.24,58.1a11.412,11.412,0,0,0-2.6.44c-6.22,1.8-10.8,4.36-14.01,7.8l-.39.42.48.33a43.40449,43.40449,0,0,0,12.15,6.07,18.871,18.871,0,0,0,5.04.59c1.95,0,3.99-.19,6.09-.38,1.28-.11,2.59-.23,3.89-.3a2.00038,2.00038,0,0,1,2.11,2V95.68a32.00642,32.00642,0,0,0,32.91,31.99C82.33,127.19,96,112.45,96,95.01V75.07a2.00041,2.00041,0,0,1,2.11-2c1.3.06995,2.61.18994,3.89.3,2.1.19,4.14.38,6.08.38a19.02,19.02,0,0,0,5.06-.59,43.49218,43.49218,0,0,0,12.14-6.07l.48-.33Z"/></svg>